<?xml version="1.0" encoding="utf-8"?>
<!DOCTYPE svg PUBLIC "-//W3C//DTD SVG 1.1//EN" "http://www.w3.org/Graphics/SVG/1.1/DTD/svg11.dtd">
<svg version="1.1" id="Layer_1" xmlns="http://www.w3.org/2000/svg" xmlns:xlink="http://www.w3.org/1999/xlink" x="0px" y="0px"
	 viewBox="2.9211 357 1913.0789 968.9335" enable-background="new 2.9211 357 1913.0789 968.9335" xml:space="preserve">
<g id="_x23_ffffffff">
</g>
<g>
	<path stroke="#000000" stroke-width="0.0938" d="M168.87,407.61c57.98-4.13,116.07-6.58,174.2-7.09
		c108.01-1.1,215.97,2.9,323.93,5.56c292.67,6.31,585.34,12.6,878.02,18.93c6.22,0.37,12.8099-0.52,18.64,2.24
		c6.8199,2.84,11.5,9.07,14.5,15.62c4.7799,10.67,6.2799,22.43,7.23,33.98c1.45,23.4-0.09,46.84-1.58,70.2
		c-0.54,10.04-1.27,20.09-0.9801,30.16c-0.45,0.04-1.33,0.11-1.7699,0.14c0.5699,7.2,1.0299,14.41,1.3899,21.62
		c0.25,3.4301-1.45,7.15-4.7899,8.44c-5.78,2.21-12.12,0.89-18.1,1.94c-6.4701,1.07-13.4301,2.2401-18.6001,6.58
		c-4.36,3.64-4.96,9.86-4.08,15.13c2.45,14.86,9.98,28.28,18.48,40.5c12.6901,18.12,28.04,34.12,41.92,51.3
		c8.9199,11.3,19.75,20.86,30.4199,30.46C1672.13,792.2,1719.51,827.5,1765.3,864.72c8.7,6.89,16.49,14.82,25.1699,21.75
		c11.97,9.95,24.3201,19.65,34.4401,31.58c5.84,7.02,10.9099,14.95,13.1899,23.89c1.59,6.21,1.23,12.67,1.55,19.02
		c0.5399,15.55,0.86,31.11,1.58,46.66c14.02,8.21,23.09,24.12,23.14,40.37c0.36,15.71-7.6801,31.27-20.65,40.12
		c0.47,14.79,0.8,29.6,1.4501,44.39c7.11-0.3,14.4299,1.72,19.9099,6.39c6.28,5.12,10.11,13.0699,10.16,21.1799
		c-0.04,12.9801,0.15,25.9701-0.1,38.9501c-0.8,13.4299-12.65,25.04-26.11,25.51c-10.36,0.15-20.73,0.01-31.0901,0.0599
		c-4.8999-0.0699-9.8999,0.41-14.6299-1.13c-2.9901-1.0699-6.1901-0.75-9.28-0.76c-11.52,0.04-23.04-0.13-34.5601-0.1
		c11.91-37.5,6.35-80.09-15.13-113.09c-19.27-30.29-51.0699-52.3201-86.2799-59.4401c-37.27-7.87-77.6801,1.02-108.0801,24.01
		c-28.48,21.0901-48.0499,53.8101-52.91,88.9401c-2.9099,19.53-1.1599,39.62,4.4801,58.52c-251.91-0.8501-503.8101-1.88-755.71-2.87
		c10.43-36.55,4.46-77.39-16.31-109.26c-20.03-31.42-53.5601-53.9601-90.3701-60.1c-36.1299-6.51-74.74,2.6599-104.02,24.84
		c-27.74,20.6-47.05,52.23-52.45,86.39c-3.22,18.99-1.93,38.58,3.05,57.1599c-112.59-0.4399-225.17-0.88-337.76-1.3099
		c-8.64,0.13-17.3-0.3-25.93,0.03c-4.17,1.7999-8.47,3.61-13.1,3.61c-12.3,0.13-24.6,0.02-36.9,0.0499
		c-7.64,0.11-15.33-2.95-20.58-8.5399c-5.06-5.17-7.87-12.39-7.82-19.6001c0.02-11.98-0.01-23.97,0.02-35.95
		c-0.03-4.8099,1.21-9.6,3.57-13.78c5-9.24,15.5-14.71,25.91-14.2799c0.07-12.7301,0.08-25.4601,0.29-38.1801
		c-4.21,0-8.42-0.02-12.62,0.03c-0.08-27.01,0.01-54.01-0.05-81.01c4.39,0,8.77,0,13.15-0.02c1.04-140.25,1.96-280.5,2.96-420.75
		c0.25-7.32-0.59-14.62-0.26-21.94c0.48-3.83-1.8-7.26-1.58-11.07c-0.13-11.78,1.67-23.47,3.24-35.11
		c2.15-15.64,5.12-31.16,7.2-46.8c0.82-15.26,5.73-30.89,16.63-41.99c7.94-8.09,18.24-13.47,28.98-16.81
		C143.34,410.42,156.12,408.73,168.87,407.61 M169.95,411.63c-19.59,1.78-40.16,4.52-56.91,15.67
		c-12.73,8.36-20.42,22.77-22.55,37.64c-2,20.47-6.35,40.62-8.91,61.03c-1.32,11.07-3.25,22.26-1.96,33.42
		c63.45,0.61,126.89,1.34,190.34,2.01c53.01,0.66,106.03,0.27,159.04,0.37c271.67,0.01,543.34,0,815.02,0.01
		c111.7-0.08,223.41,0.14,335.11-0.11c0.96-31.51,5.02-63.17,1.13-94.63c-1.46-10.23-3.6901-20.86-9.91-29.35
		c-3.96-5.42-10.59-8.62-17.2899-8.4C1400.7,426,1248.35,422.7,1095.98,419.44c-157.14-3.52-314.28-6.61-471.4-10.32
		c-96.84-2.7-193.71-5.62-290.59-4.41C279.25,405.4,224.55,407.77,169.95,411.63 M80.59,641.07c-0.7,116.37-1.71,232.74-2.36,349.12
		c586.06-0.05,1172.12-0.05,1758.1801,0c-0.0801-9.08-0.65-18.14-0.8-27.22c-0.36-7.56,0.23-15.3199-2.22-22.61
		c-3.36-9.89-9.97-18.23-17.08-25.7c-13.03-13.39-28.4701-24.1-42.0801-36.86c-13.16-11.66-27.12-22.38-40.85-33.36
		c-32.34-25.55-64.85-50.9-96.3199-77.53c-13.7001-11.92-27.6801-23.69-39.67-37.3799c-11.89-15.02-24.99-29.03-36.85-44.07
		c-10.92-14.09-21.3501-29.19-26.15-46.58c-1.76-6.65-3.26-14.09-0.23-20.61c2.33-5.28,7.62-8.47,12.89-10.27
		c7.71-2.6,15.8899-3.39,24-3.41c2.8999-0.03,7.2999-0.76,7.26-4.53c-0.04-7.15-0.9801-14.28-1.1101-21.44
		c-92.74-0.22-185.49-0.04-278.24-0.1c-302.34,0.01-604.6799,0-907.02,0.01c-103.55-0.09-207.1,0.15-310.64-0.1201
		C80.45,599.27,80.93,620.19,80.59,641.07 M78.22,1007.52c-0.4,6.15-0.25,12.32-0.34,18.48c-0.17,33.99-0.44,67.97-0.62,101.96
		c9.9,0.39,19.81,0.0701,29.72,0.17c14.9-1.0601,28.63,12.11,28.66,26.95c0.05,12.3201,0.01,24.63,0.03,36.9501
		c0,5.34-1.48,10.73-4.44,15.2c-1.07,1.66-2.56,3.09-3.18,5.02c61.31,0.15,122.62,0.47,183.93,0.6
		c56.16,0.51,112.33,0.47,168.5,0.6901c-5.37-22.8301-4.76-46.98,1.69-69.52c8.48-30.01,27.52-56.8301,52.89-74.9301
		c32.4-23.51,75.21-31.5599,114-21.9299c35.01,8.4199,66.2,31.2,85.08,61.83c19.54,31.04,25.58,69.95,17.04,105.5601
		c83.6,0.3999,167.2,0.8099,250.8,1.01c109.66,0.4199,219.3301,0.9199,328.99,1.21c55.05,0.3099,110.11,0.62,165.17,0.65
		c-8.9501-33.64-4.59-70.5801,12.09-101.15c16.6-31.05,45.49-55.27,78.97-66.16c24.9501-8.25,52.25-9.0699,77.7201-2.6799
		c32.24,8.0499,61.23,28.25,80.0499,55.63c23.3401,33.0299,30.5901,76.49,20.02,115.45c9.45-0.0601,18.9,0.16,28.35,0.04
		c-5.6699-5.3401-9.95-12.5901-10.0299-20.54c-0.03-12.98-0.0701-25.97,0.0099-38.9401c0.2101-13.6799,12.1101-25.75,25.7201-26.45
		c10.61-0.2,21.23-0.0599,31.85-0.0699c-1.2001-41.6901-2.4-83.38-4.02-125.04c-104.59,0.1-209.1899,0.01-313.78,0.04
		C1041.47,1007.53,559.84,1007.59,78.22,1007.52 M63.52,1011.58c-0.01,24.97,0.08,49.94-0.04,74.92c3.22,1.01,6.77,1.3101,9.97,0.01
		c0.13-25,0.24-50,0.27-75C70.32,1011.52,66.92,1011.53,63.52,1011.58 M1841.48,1011.89c0.12,9.35-0.03,18.74,0.78,28.08
		c0.23,9,0.26,18.01,0.5,27.02c0.9299,5.66,0.45,11.42,0.98,17.12c4.53-2.36,7.73-6.66,10.58-10.7999
		c6.29-9.4301,8.4501-21.15,6.89-32.3c-1.88-8.4-5.4199-16.58-11.39-22.9C1847.37,1015.66,1845.03,1012.64,1841.48,1011.89z"/>
	<path stroke="#000000" stroke-width="0.0938" d="M149.27,653.2c2.18-0.67,4.47-0.88,6.74-0.9c42.34,0,84.68,0,127.02,0
		c5.59,0.01,11.45-0.46,16.67,1.96c9.87,3.91,17.07,14.07,16.97,24.76c0.01,57.66,0.03,115.32-0.01,172.97
		c0.01,14.07-12.58,26.54-26.64,26.45c-44.68,0.01-89.36-0.01-134.04,0.01c-10.89,0-21.17-7.29-25.02-17.42
		c-1.57-3.8-1.86-7.94-1.8-12c0.04-56.7-0.04-113.4,0.04-170.09C129.13,667.12,137.9,656.14,149.27,653.2 M154.31,656.47
		c-11.77,0.78-21.51,11.77-21.08,23.53c-0.03,57.01-0.02,114.02-0.01,171.03c-0.29,12.24,10.48,23.4,22.77,23.31
		c44.68,0.02,89.37,0.02,134.05,0c12.18-0.02,22.91-11.09,22.57-23.26c0.02-57.35,0.02-114.7,0-172.04
		c0.01-11.96-10.62-22.75-22.63-22.63C244.76,656.43,199.53,656.31,154.31,656.47z"/>
	<path stroke="#000000" stroke-width="0.0938" d="M384.28,653.35c4.11-1.3199,8.46-1.06,12.72-1.05c43.01,0,86.03-0.01,129.04,0.01
		c13.98,0.11,26.35,12.7,26.22,26.69c0.02,57.67,0.02,115.33,0,172.99c-0.05,13.92-12.32,26.26-26.23,26.44
		c-44.99,0.02-89.99,0.04-134.98-0.01c-13.96-0.09-26.25-12.51-26.32-26.45c-0.06-57.64-0.02-115.28-0.02-172.92
		C364.72,667.41,373.09,656.46,384.28,653.35 M389.32,656.51c-9.85,1.01-18.38,8.99-20.12,18.73c-0.72,4.54-0.25,9.17-0.37,13.75
		c-0.01,54.01,0,108.03,0,162.04c-0.19,9.5099,6.13,18.62,15.05,21.86c5.13,2.04,10.73,1.35,16.11,1.46
		c41.98-0.03,83.96,0.04,125.93-0.03c11.74-0.17,22.11-10.6,22.24-22.33c0.04-57.66,0.02-115.32,0.02-172.98
		c0.01-12.15-10.96-22.95-23.12-22.62C479.82,656.49,434.56,656.24,389.32,656.51z"/>
	<path stroke="#000000" stroke-width="0.0938" d="M619.34,653.52c4.39-1.61,9.11-1.18,13.7-1.22c42.64,0,85.27,0,127.91,0
		c10.71-0.12,20.92,7,24.87,16.9c2.11,4.62,2.07,9.79,2.01,14.77c-0.03,55.67,0,111.34-0.02,167.02
		c0.35,11.35-7.43,22.21-18.11,25.89c-4.37,1.66-9.1,1.64-13.7,1.57c-43-0.03-86,0.02-129.01-0.02
		c-14.07,0.09-26.64-12.37-26.69-26.44c-0.08-57.32-0.01-114.65-0.03-171.97C599.89,668.25,608.06,656.89,619.34,653.52
		 M625.37,656.47c-11.36,0.8-20.92,11.16-20.99,22.52c-0.05,57.01,0.01,114.01-0.03,171.02c-0.08,3.62,0.51,7.29,2.06,10.6
		c3.6201,8.32,12.5,14.01,21.59,13.73c44.33,0.0099,88.67,0.02,133.01,0.0099c12.28,0.09,23.12-11.09,22.75-23.35
		c0-57.33,0.03-114.67-0.01-172c-0.01-12-10.73-22.75-22.76-22.61C715.78,656.44,670.57,656.3,625.37,656.47z"/>
	<path stroke="#000000" stroke-width="0.0938" d="M857.11,652.91c3.21-0.77,6.54-0.61,9.83-0.61c43.36,0.03,86.71-0.03,130.07,0.02
		c11.2,0.07,21.66,8.03,25.04,18.66c1.91,5.46,1.26,11.3,1.36,16.97c0,54.67,0.04,109.34-0.02,164.01
		c-0.05,13.97-12.38,26.37-26.35,26.46c-45.02,0.03-90.04,0.07-135.06-0.02c-13.87-0.19-26.08-12.56-26.1-26.4301
		c-0.04-57.66-0.03-115.33-0.01-172.99C835.86,666.75,845.16,655.42,857.11,652.91 M860.36,656.52
		c-11.1,1.11-20.33,11.27-20.41,22.43c-0.08,54.69-0.01,109.37-0.03,164.06c0.11,5.76-0.59,11.85,1.89,17.25
		c3.48,8.35,12.19,14.2,21.27,14.09c43.64,0.01,87.27-0.02,130.91,0.01c3.71,0.13,7.47-0.31,10.91-1.76
		c8.58-3.39,14.61-12.33,14.4-21.58c-0.01-55.66,0-111.32,0-166.98c0.03-3.99,0.2-8.1-1.21-11.89c-3.01-9.26-12.38-16.1-22.16-15.76
		C950.74,656.49,905.54,656.22,860.36,656.52z"/>
	<path stroke="#000000" stroke-width="0.0938" d="M1090.41,653.51c4.0299-1.4,8.34-1.25,12.5599-1.21
		c43.3301,0.01,86.66-0.02,129.99,0.01c13.88,0.26,26.2001,12.76,25.9301,26.7c0.0699,57.69,0.1899,115.37,0,173.05
		c0.02,13.8-12.17,26.07-25.9301,26.35c-44.98,0.07-89.97,0.03-134.96,0.02c-14.01,0.03-26.5-12.37-26.5601-26.38
		c-0.0599-57.66-0.0299-115.32-0.0099-172.99C1071.37,667.61,1079.52,656.88,1090.41,653.51 M1096.36,656.48
		c-11.3199,0.91-20.83,11.21-20.85,22.57c0.01,57.64-0.03,115.29,0.02,172.93c0.14,12.17,11.25,22.83,23.4399,22.36
		c44.3201,0.03,88.65,0.0099,132.98,0c12.3201,0.18,23.3-10.9301,22.9-23.26c0.0801-55.71,0.01-111.41,0.03-167.12
		c-0.03-3.66,0.1899-7.41-0.9301-10.94c-2.5299-8.63-10.35-15.5-19.35-16.48c-4.2-0.33-8.41-0.07-12.61-0.14
		C1180.12,656.45,1138.23,656.28,1096.36,656.48z"/>
	<path stroke="#000000" stroke-width="0.0938" d="M1318.21,653.15c4.13-1.2,8.4701-0.8,12.7201-0.85c48.36,0,96.73,0.01,145.09,0
		c8.41-0.05,16.62,2.72,23.95,6.72c7.0701,3.93,13.5601,9.21,17.99,16.07c32.91,49.08,65.8101,98.18,98.7101,147.27
		c9.86,14.88,20.97,28.9,32.2899,42.68c0.26,4.28-1.95,8.55-3.3199,12.61c-1.72,0.89-3.73,0.78-5.58,1.0099
		c-16.9701,1.59-34.04,0.89-51.05,0.8c-88.3201-1.52-176.66-0.85-264.98-1.06c-13.86-0.21-26.05-12.55-26.0901-26.41
		c-0.1399-57.34-0.0199-114.68-0.0499-172.01C1297.52,667.75,1306.35,656.11,1318.21,653.15 M1316.22,658.17
		c-8.23,3.36-14.13,11.85-14.14,20.78c-0.01,57.69-0.0199,115.39,0.01,173.09c0.03,11.97,10.9701,22.54,22.92,22.29
		c82.35,0.19,164.7-0.46,247.03,0.81c23.48-0.02,47.0399,1.47,70.45-0.84c0.75-2.64,2.1801-5.16,2.3-7.92
		c-9.48-11.33-18.5701-23.01-27.04-35.11c-33.15-49.2-66.0699-98.56-99.15-147.82c-3.48-5.13-6.64-10.62-11.5499-14.55
		c-9.4301-7.86-21.5801-13.26-34.05-12.51c-48,0.01-96,0.01-144,0C1324.6801,656.29,1320.21,656.31,1316.22,658.17z"/>
	<path stroke="#000000" stroke-width="0.0938" d="M363.06,907c15.28-2.8,30.97-2.57,46.39-1.17c7.49,1.09,15.35,1.93,22,5.82
		c4.49,3.1,4.55,9.21,4.4,14.12c-12.88,0.03-25.75,0.05-38.63-0.01c0.09-3.03,0.12-6.11-0.93-8.99c-3.55-1.12-7.6-1.56-11.03,0.17
		c-2.82,1.69-2.48,6.05-0.43,8.22c2.19,1.77,5,2.4301,7.65,3.2c12.21,3.15,24.64,5.74,36.37,10.47c4.51,1.68,8.65,5.12,9.81,9.97
		c1.34,5.01,1.17,11.23-2.67,15.13c-4.48,3.78-10.52,4.72-16.06,6.01c-17.18,2.87-34.87,3-52.08,0.28
		c-6.16-1.3-12.74-2.42-17.85-6.3199c-4.76-3.95-4.69-10.6801-4.5-16.32c12.91,0.07,25.82,0.06,38.73,0
		c0.13,3.58-0.31,7.23,0.35,10.78c0.61,2.45,3.61,2.51,5.65,2.81c3.16,0.08,7.1-0.06,9.1-2.93c1.22-3.82-0.18-8.99-4.46-10.1
		c-12.9-4.54-26.44-7.02-39.34-11.59c-4.45-1.72-9.01-4.62-10.73-9.29c-1.4-5.06-0.6-11.27,3.62-14.8
		C352.66,909.28,357.96,908.07,363.06,907z"/>
	<path stroke="#000000" stroke-width="0.0938" d="M465.44,909.22c11.46-3.68,23.6-4.2599,35.54-4.43
		c12.4,0.34,25.09,0.86,36.85,5.21c3.82,1.46,7.9,3.45,9.75,7.34c2.6,5.28,2.03,11.34,2.01,17.04c-13.8-0.1-27.6,0.08-41.4-0.09
		c-0.94-5.42,0.56-11.09-0.97-16.41c-2.31-3.03-7.06-2.08-10.37-1.7c-3.91,0.23-3.97,4.9-4.05,7.83c0.25,10.99-0.48,22.04,0.38,33
		c0.1,3.99,4.81,4.24,7.82,4.21c2.21-0.24,5.32-0.27,6.31-2.67c1.1-4.51,0.25-9.21,0.83-13.78c13.84,0.11,27.69-0.08,41.54,0.09
		c-0.01,6.73,0.09,15.4-6.52,19.3c-12.2,6.6-26.47,7.59-40.08,8c-12.78-0.09-25.83-0.42-38.12-4.27c-4.53-1.47-9.33-3.76-11.49-8.26
		c-3.31-6.75-1.97-14.48-2.25-21.7c0.26-6.75-0.82-13.78,1.45-20.27C455.5,913.19,460.63,910.92,465.44,909.22z"/>
	<path stroke="#000000" stroke-width="0.0938" d="M705.48,905.85c15.17-1.55,30.63-1.53,45.63,1.46c6.25,1.48,12.84,3.4,17.55,8.01
		c3.64,3.54,3.02,9.06,3.46,13.69c-0.09,8.94,0.54,17.94-0.67,26.82c-0.53,5.7-6.06,8.85-10.77,10.91
		c-11.3,4.55-23.69,5.11-35.71,5.43c-12.66-0.24-25.71-0.65-37.6299-5.4c-4.65-2.06-10.14-5.1-10.84-10.7
		c-1.27-8.32-0.52-16.77-0.74-25.15c0.39-5.22-0.43-11.51,3.51-15.6C686.28,908.72,696.33,907.24,705.48,905.85 M718.88,916.9
		c-1.49,2.05-1.4,4.66-1.39,7.08c0.06,10.35-0.04,20.7,0.05,31.05c0.16,1.9399,0.02,4.64,2.19,5.52c3,1.07,6.5,0.86,9.36-0.56
		c1.27-2.06,1.33-4.57,1.36-6.9c-0.02-10.3701-0.01-20.7401-0.01-31.11c0.08-1.86-0.59-3.61-1.18-5.32
		C725.88,915.68,722.13,915.28,718.88,916.9z"/>
	<path stroke="#000000" stroke-width="0.0938" d="M816.58,905.79c16.07-1.53,32.52-1.55,48.28,2.25c6.4,2,14.45,4.45,16.9,11.42
		c1.73,8.73,0.76,17.72,1,26.56c-0.31,5.58,0.57,12.52-4.29,16.48c-7.16,5.86-16.68,7.38-25.5699,8.66
		c-14.89,1.4901-30.05,1.46-44.78-1.34c-7.03-1.58-14.65-3.75-19.4-9.54c-2.47-4.3-2.03-9.55-2.29-14.34
		c0.11-8.45-0.54-16.99,0.81-25.36c0.6-4.44,4.49-7.27,8.17-9.21C801.97,908.02,809.35,906.75,816.58,905.79 M828.31,920.26
		c-0.26,11.26-0.06,22.53-0.1,33.8c0.17,2.06-0.2,4.6,1.47,6.19c3,1.31,6.57,1.3,9.59,0c1.8-1.47,1.58-4.13,1.88-6.21
		c0.11-7.68,0-15.35,0.04-23.02c-0.08-4.73,0.48-9.57-1-14.14C836.32,915.32,828.69,914.51,828.31,920.26z"/>
	<path stroke="#000000" stroke-width="0.0938" d="M1250.6899,906.65c9.65-1.58,19.4801-1.97,29.26-1.79
		c12.15,0.64,24.8601,0.86,36.12,6.01c5.62,2.54,6.05,9.57,5.8,14.92c-12.87,0-25.75,0.03-38.62-0.02c0.08-3.04,0.1-6.12-0.97-9
		c-3.63-1.13-7.79-1.57-11.23,0.3c-2.26,1.48-2.1801,4.71-1.1101,6.9c1.64,2.69,5.0601,3.22,7.8401,4.2
		c12.1699,3.22,24.59,5.72,36.35,10.35c4.34,1.64,8.66,4.58,10.1801,9.2c1.58,4.69,1.71,10.3101-1.02,14.6201
		c-2.39,3.41-6.5601,4.79-10.37,5.93c-11.36,3.17-23.2301,3.86-34.9701,3.9c-11.5599-0.33-23.33-0.84-34.3999-4.48
		c-3.7201-1.3-7.78-2.87-9.8601-6.45c-2.5499-4.05-2.2999-9.04-2.23-13.63c12.91,0.02,25.8201,0.02,38.73,0
		c0.3101,3.92-0.9299,8.41,1.0701,11.99c3.37,2.31,8.11,1.87,11.85,0.59c4.79-2.52,2.7001-10.77-2.15-12.05
		c-12.45-4.36-25.48-6.81-37.97-11.05c-5-1.75-10.41-4.6801-12.25-9.98c-1.3-5-0.6-11.18,3.66-14.61
		C1239.11,908.99,1245.02,907.72,1250.6899,906.65z"/>
	<path stroke="#000000" stroke-width="0.0938" d="M898.32,906.28c13.84-0.04,27.68-0.03,41.52-0.01
		c0.14,17.16-0.02,34.34,0.24,51.49c8.45,0.33,17.04-0.68,25.4,0.52c-0.24,4.1-0.18,8.22-0.09,12.34
		c-22.35,0.22-44.7,0.01-67.06,0.1C898.29,949.24,898.31,927.76,898.32,906.28z"/>
	<path stroke="#000000" stroke-width="0.0938" d="M564.52,906.29c13.93-0.04,27.87-0.08,41.8,0.01c-0.11,7.66-0.09,15.33-0.01,23
		c4.07,0,8.15-0.02,12.23,0.03c0.11-7.67,0.04-15.34,0.04-23.01c13.92-0.11,27.85-0.11,41.78,0c-0.08,21.43-0.08,42.86,0,64.29
		c-13.93,0.16-27.87,0.17-41.81-0.01c0.05-8.98,0.12-17.96-0.04-26.94c-4.09,0.03-8.19-0.05-12.27,0.11
		c0.07,8.96-0.06,17.93,0.07,26.89c-13.93,0.07-27.86,0.09-41.79-0.0099C564.54,949.2,564.54,927.74,564.52,906.29z"/>
	<path stroke="#000000" stroke-width="0.0938" d="M1011.09,906.34c15.9899-0.2,31.9899-0.03,47.9899-0.09
		c10.4,0.2,20.9501,0.2,31.12,2.64c5.5601,1.57,12.05,4.09,13.99,10.12c1.2201,4.4,1.64,10.64-3.0099,13.2
		c-5.03,2.5-10.78,2.85-16.25,3.63c6.0299,1.03,12.38,1.43,17.88,4.3799c3.1899,1.6801,5.24,5.1801,5.11,8.8
		c0.26,5.73,0.98,12.92-4.24,16.79c-6.64,4.39-15,4.19-22.64,4.65c-23.3,0.5-46.62,0.17-69.92,0.22
		C1011.1,949.23,1011.19,927.78,1011.09,906.34 M1052.6801,917.37c0.0299,4.72-0.01,9.44,0.0399,14.17
		c4.1801-0.08,8.5701,0.42,12.5-1.36c0.87-3.51,2.26-7.98-0.3199-11.06C1061.41,916.56,1056.71,917.67,1052.6801,917.37
		 M1052.71,941.68c-0.02,5.99-0.01,11.99,0.01,17.99c3.9-0.26,8.02,0.17,11.7101-1.38c2.5499-1.9,1.73-5.58,1.9399-8.33
		c-0.1801-2.46,0.42-5.81-2.09-7.26C1060.5,941.71,1056.5699,941.76,1052.71,941.68z"/>
	<path stroke="#000000" stroke-width="0.0938" d="M1122.3101,906.29c13.8899-0.04,27.7799-0.09,41.6799,0.02
		c-0.14,14.89,0,29.79-0.0699,44.69c0,2.65-0.0901,5.36,0.59,7.96c0.37,1.95,2.9299,1.88,4.49,2.23c2.6,0.12,6.71-0.27,6.62-3.77
		c0.46-17.02,0.04-34.08,0.21-51.11c13.91-0.11,27.8201-0.05,41.74-0.03c-0.0099,15.23,0.03,30.46-0.0099,45.6899
		c-0.1901,3.77-0.26,8.35-3.64,10.82c-7.3,5.83-16.8501,7.41-25.8501,8.57c-14.85,1.29-29.9299,1.15-44.6-1.63
		c-6.2899-1.34-12.9399-2.93-17.8199-7.38c-3.3301-2.7599-3-7.5099-3.27-11.4C1122.1801,936.06,1122.3101,921.17,1122.3101,906.29z"
		/>
	<path stroke="#000000" stroke-width="0.0938" d="M600.56,1059.83c24.25-3.0199,49.4,1.2301,71.18,12.39
		c29.86,15,52.98,42.67,62.41,74.73c11.08,36.42,4.0699,77.8301-18.73,108.38c-22.44,31.0901-60.12,50.49-98.49,50.4301
		c-33.76,0.55-67.28-13.8-90.43-38.3201c-13.51-14.22-23.61-31.6699-29.06-50.5199c-10.58-35.77-3.82-76.17,18.08-106.39
		C535.21,1082.8101,566.76,1063.85,600.56,1059.83 M608.45,1103.64c-19.91,1.91-39.04,11.59-52.11,26.77
		c-12.6,14.35-19.63,33.45-19.4,52.5399c0.13,17.8301,6.37,35.6001,17.79,49.3401c10.43,13.0599,25.28,22.3099,41.38,26.59
		c17.5,4.47,36.6,2.95,52.95-4.84c15.56-6.9701,28.45-19.4601,36.5-34.4301c10.44-19.12,12.12-42.62,5.05-63.16
		c-4.6-13.0499-12.54-24.96-23.08-33.9399C651.55,1108.45,629.59,1101.65,608.45,1103.64z"/>
	<path stroke="#000000" stroke-width="0.0938" d="M1622.08,1059.1899c22.86-1.59,46.17,3.2401,66.4,14.0701
		c28.9,15.21,51.22,42.37,60.4401,73.72c6.9399,23.3,6.8099,48.66-0.36,71.89c-9.9901,32.78-34.39,60.78-65.4401,75.24
		c-33.24,15.8201-73.64,15.53-106.63-0.83c-30.45-14.73-54.1899-42.5801-63.9-74.99c-7.9399-26.05-6.95-54.74,2.8401-80.17
		c10.1899-26.79,30.1-49.71,55.1499-63.64C1586.33,1065.64,1604.0601,1060.42,1622.08,1059.1899 M1617.3,1104.45
		c-21.25,3.5901-40.8501,16.24-52.5901,34.3401c-8.8099,13.2799-13.39,29.27-12.99,45.1899c0.1801,17.35,6.61,34.4301,17.42,47.9401
		c11.6899,14.4199,28.46,24.76,46.79,28.0399c20.88,4.03,43.4399-0.74,60.6399-13.34c12.27-8.5599,21.7301-20.89,27.3501-34.72
		c7.6799-18.88,7.6-40.8-0.2001-59.63c-6.1599-15.16-17.25-28.25-31.11-36.92C1656.4,1104.9301,1636.22,1101.3199,1617.3,1104.45z"
		/>
	<path fill="#FDD118" stroke="#FDD118" stroke-width="0.0938" d="M169.95,411.63c54.6-3.86,109.3-6.23,164.04-6.92
		c96.88-1.21,193.75,1.71,290.59,4.41c157.12,3.71,314.26,6.8,471.4,10.32c152.37,3.26,304.72,6.56,457.0801,9.85
		c6.7-0.22,13.33,2.98,17.2899,8.4c6.22,8.49,8.4501,19.12,9.91,29.35c3.89,31.46-0.17,63.12-1.13,94.63
		c-111.7,0.25-223.41,0.03-335.11,0.11c-271.68-0.01-543.35,0-815.02-0.01c-53.01-0.1-106.03,0.29-159.04-0.37
		c-63.45-0.67-126.89-1.4-190.34-2.01c-1.29-11.16,0.64-22.35,1.96-33.42c2.56-20.41,6.91-40.56,8.91-61.03
		c2.13-14.87,9.82-29.28,22.55-37.64C129.79,416.15,150.36,413.41,169.95,411.63z"/>
	<path fill="#FDD118" stroke="#FDD118" stroke-width="0.0938" d="M80.59,641.07c0.34-20.88-0.14-41.8,0.71-62.66
		c103.54,0.27,207.09,0.03,310.64,0.1201c302.34-0.01,604.68,0,907.02-0.01c92.75,0.06,185.5-0.12,278.24,0.1
		c0.13,7.16,1.0701,14.29,1.1101,21.44c0.0399,3.77-4.3601,4.5-7.26,4.53c-8.1101,0.02-16.29,0.81-24,3.41
		c-5.27,1.8-10.5601,4.99-12.89,10.27c-3.03,6.52-1.53,13.96,0.23,20.61c4.7999,17.39,15.23,32.49,26.15,46.58
		c11.86,15.04,24.96,29.05,36.85,44.07c11.99,13.6899,25.97,25.46,39.67,37.3799c31.47,26.63,63.98,51.98,96.3199,77.53
		c13.73,10.98,27.6899,21.7,40.85,33.36c13.61,12.76,29.05,23.47,42.0801,36.86c7.11,7.47,13.72,15.81,17.08,25.7
		c2.45,7.29,1.86,15.05,2.22,22.61c0.15,9.08,0.72,18.14,0.8,27.22c-586.0601-0.05-1172.1201-0.05-1758.1801,0
		C78.88,873.81,79.89,757.44,80.59,641.07 M149.27,653.2c-11.37,2.94-20.14,13.92-20.07,25.74c-0.08,56.69,0,113.39-0.04,170.09
		c-0.06,4.06,0.23,8.2,1.8,12c3.85,10.1299,14.13,17.42,25.02,17.42c44.68-0.02,89.36,0,134.04-0.01
		c14.06,0.09,26.65-12.38,26.64-26.45c0.04-57.65,0.02-115.31,0.01-172.97c0.1-10.69-7.1-20.85-16.97-24.76
		c-5.22-2.42-11.08-1.95-16.67-1.96c-42.34,0-84.68,0-127.02,0C153.74,652.32,151.45,652.53,149.27,653.2 M384.28,653.35
		c-11.19,3.11-19.56,14.06-19.57,25.7c0,57.64-0.04,115.28,0.02,172.92c0.07,13.94,12.36,26.36,26.32,26.45
		c44.99,0.05,89.99,0.03,134.98,0.01c13.91-0.18,26.18-12.52,26.23-26.44c0.02-57.66,0.02-115.32,0-172.99
		c0.13-13.99-12.24-26.58-26.22-26.69c-43.01-0.02-86.03-0.01-129.04-0.01C392.74,652.29,388.39,652.03,384.28,653.35
		 M619.34,653.52c-11.28,3.37-19.45,14.73-19.07,26.5c0.02,57.32-0.05,114.65,0.03,171.97c0.05,14.07,12.62,26.53,26.69,26.44
		C670,878.47,713,878.42,756,878.45c4.6,0.07,9.33,0.09,13.7-1.57c10.68-3.68,18.46-14.54,18.11-25.89
		c0.02-55.68-0.01-111.35,0.02-167.02c0.06-4.98,0.1-10.15-2.01-14.77c-3.95-9.9-14.16-17.02-24.87-16.9c-42.64,0-85.27,0-127.91,0
		C628.45,652.34,623.73,651.91,619.34,653.52 M857.11,652.91c-11.95,2.51-21.25,13.84-21.24,26.07
		c-0.02,57.66-0.03,115.33,0.01,172.99c0.02,13.8701,12.23,26.2401,26.1,26.4301c45.02,0.09,90.04,0.05,135.06,0.02
		c13.97-0.09,26.3-12.49,26.35-26.46c0.06-54.67,0.02-109.34,0.02-164.01c-0.1-5.67,0.55-11.51-1.36-16.97
		c-3.38-10.63-13.84-18.59-25.04-18.66c-43.36-0.05-86.71,0.01-130.07-0.02C863.65,652.3,860.32,652.14,857.11,652.91
		 M1090.41,653.51c-10.89,3.37-19.04,14.1-18.98,25.55c-0.02,57.67-0.05,115.33,0.0099,172.99
		c0.0601,14.01,12.55,26.41,26.5601,26.38c44.99,0.01,89.98,0.05,134.96-0.02c13.76-0.28,25.9501-12.55,25.9301-26.35
		c0.1899-57.68,0.0699-115.36,0-173.05c0.27-13.94-12.05-26.44-25.9301-26.7c-43.33-0.03-86.6599,0-129.99-0.01
		C1098.75,652.26,1094.4399,652.11,1090.41,653.51 M1318.21,653.15c-11.86,2.96-20.6899,14.6-20.3199,26.83
		c0.03,57.33-0.09,114.67,0.0499,172.01c0.04,13.86,12.2301,26.2,26.0901,26.41c88.3199,0.21,176.6599-0.46,264.98,1.06
		c17.01,0.09,34.08,0.79,51.05-0.8c1.85-0.23,3.86-0.12,5.58-1.0099c1.37-4.06,3.58-8.33,3.3199-12.61
		c-11.3199-13.78-22.4299-27.8-32.2899-42.68c-32.9-49.09-65.8-98.19-98.7101-147.27c-4.4299-6.86-10.9199-12.14-17.99-16.07
		c-7.33-4-15.5399-6.77-23.95-6.72c-48.36,0.01-96.73,0-145.09,0C1326.6801,652.35,1322.34,651.95,1318.21,653.15 M363.06,907
		c-5.1,1.07-10.4,2.28-14.64,5.46c-4.22,3.53-5.02,9.74-3.62,14.8c1.72,4.67,6.28,7.57,10.73,9.29c12.9,4.57,26.44,7.05,39.34,11.59
		c4.28,1.11,5.68,6.28,4.46,10.1c-2,2.87-5.94,3.01-9.1,2.93c-2.04-0.3-5.04-0.36-5.65-2.81c-0.66-3.55-0.22-7.2-0.35-10.78
		c-12.91,0.06-25.82,0.07-38.73,0c-0.19,5.64-0.26,12.37,4.5,16.32c5.11,3.9,11.69,5.02,17.85,6.3199
		c17.21,2.72,34.9,2.59,52.08-0.28c5.54-1.29,11.58-2.23,16.06-6.01c3.84-3.9,4.01-10.12,2.67-15.13c-1.16-4.85-5.3-8.29-9.81-9.97
		c-11.73-4.73-24.16-7.32-36.37-10.47c-2.65-0.77-5.46-1.43-7.65-3.2c-2.05-2.17-2.39-6.53,0.43-8.22
		c3.43-1.73,7.48-1.29,11.03-0.17c1.05,2.88,1.02,5.96,0.93,8.99c12.88,0.06,25.75,0.04,38.63,0.01c0.15-4.91,0.09-11.02-4.4-14.12
		c-6.65-3.89-14.51-4.73-22-5.82C394.03,904.43,378.34,904.2,363.06,907 M465.44,909.22c-4.81,1.7-9.94,3.97-12.77,8.44
		c-2.27,6.4901-1.19,13.52-1.45,20.27c0.28,7.22-1.06,14.95,2.25,21.7c2.16,4.5,6.96,6.79,11.49,8.26
		c12.29,3.85,25.34,4.18,38.12,4.27c13.61-0.41,27.88-1.4,40.08-8c6.61-3.9,6.51-12.5699,6.52-19.3
		c-13.85-0.17-27.7,0.02-41.54-0.09c-0.58,4.57,0.27,9.27-0.83,13.78c-0.99,2.4-4.1,2.43-6.31,2.67c-3.01,0.03-7.72-0.22-7.82-4.21
		c-0.86-10.96-0.13-22.01-0.38-33c0.08-2.93,0.14-7.6,4.05-7.83c3.31-0.38,8.06-1.33,10.37,1.7c1.53,5.32,0.03,10.99,0.97,16.41
		c13.8,0.17,27.6-0.0099,41.4,0.09c0.02-5.7,0.59-11.76-2.01-17.04c-1.85-3.89-5.93-5.88-9.75-7.34
		c-11.76-4.35-24.45-4.87-36.85-5.21C489.04,904.96,476.9,905.54,465.44,909.22 M705.48,905.85c-9.15,1.39-19.2,2.87-26.21,9.47
		c-3.94,4.09-3.12,10.38-3.51,15.6c0.22,8.38-0.53,16.83,0.74,25.15c0.7,5.6,6.19,8.64,10.84,10.7
		c11.92,4.75,24.97,5.16,37.6299,5.4c12.02-0.32,24.41-0.88,35.71-5.43c4.71-2.06,10.24-5.21,10.77-10.91
		c1.21-8.88,0.58-17.88,0.67-26.82c-0.44-4.63,0.18-10.15-3.46-13.69c-4.71-4.61-11.3-6.53-17.55-8.01
		C736.11,904.32,720.65,904.3,705.48,905.85 M816.58,905.79c-7.23,0.96-14.61,2.23-21.17,5.58c-3.68,1.94-7.5699,4.77-8.17,9.21
		c-1.35,8.37-0.7,16.91-0.81,25.36c0.26,4.79-0.18,10.04,2.29,14.34c4.75,5.79,12.3701,7.96,19.4,9.54
		c14.73,2.8,29.89,2.83,44.78,1.34c8.89-1.28,18.41-2.8,25.5699-8.66c4.86-3.96,3.98-10.9,4.29-16.48c-0.24-8.84,0.73-17.83-1-26.56
		c-2.45-6.97-10.5-9.42-16.9-11.42C849.1,904.24,832.65,904.26,816.58,905.79 M1250.6899,906.65
		c-5.6699,1.0699-11.58,2.34-16.2899,5.85c-4.26,3.43-4.9601,9.61-3.66,14.61c1.84,5.3,7.25,8.23,12.25,9.98
		c12.49,4.24,25.52,6.69,37.97,11.05c4.8501,1.28,6.9401,9.53,2.15,12.05c-3.74,1.28-8.48,1.72-11.85-0.59
		c-2-3.58-0.76-8.0699-1.0701-11.99c-12.9099,0.02-25.8199,0.02-38.73,0c-0.0699,4.59-0.3199,9.58,2.23,13.63
		c2.0801,3.58,6.14,5.15,9.8601,6.45c11.0699,3.64,22.84,4.15,34.3999,4.48c11.74-0.04,23.6101-0.73,34.9701-3.9
		c3.8099-1.14,7.98-2.52,10.37-5.93c2.73-4.31,2.6-9.9301,1.02-14.6201c-1.52-4.62-5.8401-7.56-10.1801-9.2
		c-11.76-4.63-24.1801-7.13-36.35-10.35c-2.78-0.98-6.2001-1.51-7.8401-4.2c-1.0699-2.1899-1.1499-5.42,1.1101-6.9
		c3.4399-1.87,7.6-1.43,11.23-0.3c1.0699,2.88,1.0499,5.96,0.97,9c12.87,0.05,25.75,0.02,38.62,0.02
		c0.25-5.35-0.1801-12.38-5.8-14.92c-11.2599-5.15-23.97-5.37-36.12-6.01C1270.17,904.68,1260.34,905.07,1250.6899,906.65
		 M898.32,906.28c-0.01,21.48-0.03,42.96,0.01,64.4399c22.36-0.09,44.71,0.1201,67.06-0.1c-0.09-4.12-0.15-8.24,0.09-12.34
		c-8.36-1.2-16.95-0.19-25.4-0.52c-0.26-17.15-0.1-34.33-0.24-51.49C926,906.25,912.16,906.24,898.32,906.28 M564.52,906.29
		c0.02,21.45,0.02,42.91,0,64.36c13.93,0.1,27.86,0.08,41.79,0.0099c-0.13-8.96,0-17.93-0.07-26.89c4.08-0.16,8.18-0.08,12.27-0.11
		c0.16,8.98,0.09,17.96,0.04,26.94c13.94,0.1801,27.88,0.17,41.81,0.01c-0.08-21.43-0.08-42.86,0-64.29
		c-13.93-0.11-27.86-0.11-41.78,0c0,7.67,0.07,15.34-0.04,23.01c-4.08-0.05-8.16-0.03-12.23-0.03c-0.08-7.67-0.1-15.34,0.01-23
		C592.39,906.21,578.45,906.25,564.52,906.29 M1011.09,906.34c0.1,21.44,0.0099,42.89,0.03,64.34c23.3-0.05,46.62,0.28,69.92-0.22
		c7.64-0.46,16-0.26,22.64-4.65c5.22-3.87,4.5-11.06,4.24-16.79c0.13-3.62-1.92-7.12-5.11-8.8c-5.5-2.95-11.8501-3.35-17.88-4.3799
		c5.47-0.78,11.22-1.13,16.25-3.63c4.6499-2.56,4.23-8.8,3.0099-13.2c-1.9399-6.03-8.4299-8.55-13.99-10.12
		c-10.1699-2.44-20.72-2.44-31.12-2.64C1043.08,906.31,1027.08,906.14,1011.09,906.34 M1122.3101,906.29
		c0,14.88-0.13,29.77,0.0699,44.66c0.27,3.89-0.0601,8.64,3.27,11.4c4.88,4.45,11.53,6.04,17.8199,7.38
		c14.67,2.78,29.75,2.92,44.6,1.63c9-1.16,18.55-2.74,25.8501-8.57c3.38-2.47,3.45-7.05,3.64-10.82
		c0.0399-15.23,0-30.46,0.0099-45.6899c-13.9199-0.02-27.83-0.08-41.74,0.03c-0.1699,17.03,0.25,34.09-0.21,51.11
		c0.09,3.5-4.02,3.89-6.62,3.77c-1.5601-0.35-4.12-0.28-4.49-2.23c-0.6801-2.6-0.59-5.31-0.59-7.96
		c0.0699-14.9-0.0701-29.8,0.0699-44.69C1150.09,906.2,1136.2,906.25,1122.3101,906.29z"/>
	<path fill="#FDD118" stroke="#FDD118" stroke-width="0.0938" d="M718.88,916.9c3.25-1.62,7-1.22,10.38-0.2401
		c0.59,1.71,1.26,3.46,1.18,5.32c0,10.37-0.01,20.74,0.01,31.11c-0.03,2.33-0.09,4.84-1.36,6.9c-2.86,1.42-6.36,1.63-9.36,0.56
		c-2.17-0.88-2.03-3.58-2.19-5.52c-0.09-10.35,0.01-20.7-0.05-31.05C717.48,921.56,717.39,918.95,718.88,916.9z"/>
	<path fill="#FDD118" stroke="#FDD118" stroke-width="0.0938" d="M828.31,920.26c0.38-5.75,8.01-4.94,11.88-3.38
		c1.48,4.57,0.92,9.41,1,14.14c-0.04,7.67,0.07,15.34-0.04,23.02c-0.3,2.08-0.08,4.7401-1.88,6.21c-3.02,1.3-6.59,1.31-9.59,0
		c-1.67-1.59-1.3-4.13-1.47-6.19C828.25,942.79,828.05,931.52,828.31,920.26z"/>
	<path fill="#FDD118" stroke="#FDD118" stroke-width="0.0938" d="M1052.6801,917.37c4.0299,0.3,8.73-0.81,12.22,1.75
		c2.58,3.08,1.1899,7.55,0.3199,11.06c-3.9299,1.78-8.3199,1.28-12.5,1.36C1052.67,926.81,1052.71,922.09,1052.6801,917.37z"/>
	<path fill="#FDD118" stroke="#FDD118" stroke-width="0.0938" d="M1052.71,941.68c3.86,0.08,7.79,0.03,11.5701,1.02
		c2.51,1.45,1.9099,4.8,2.09,7.26c-0.21,2.75,0.61,6.43-1.9399,8.33c-3.6901,1.55-7.8101,1.12-11.7101,1.38
		C1052.7,953.67,1052.6899,947.67,1052.71,941.68z"/>
	<path fill="#FDD118" stroke="#FDD118" stroke-width="0.0938" d="M78.22,1007.52c481.62,0.07,963.25,0.01,1444.87,0.03
		c104.5901-0.03,209.1901,0.06,313.78-0.04c1.62,41.66,2.8199,83.35,4.02,125.04c-10.62,0.01-21.24-0.13-31.85,0.0699
		c-13.61,0.7-25.51,12.77-25.7201,26.45c-0.08,12.9701-0.0399,25.9601-0.0099,38.9401c0.08,7.95,4.36,15.2,10.0299,20.54
		c-9.45,0.12-18.9-0.1001-28.35-0.04c10.5701-38.96,3.3201-82.42-20.02-115.45c-18.8199-27.38-47.8099-47.5801-80.0499-55.63
		c-25.4701-6.39-52.77-5.5701-77.7201,2.6799c-33.48,10.89-62.37,35.11-78.97,66.16c-16.6799,30.5699-21.04,67.51-12.09,101.15
		c-55.0601-0.03-110.12-0.3401-165.17-0.65c-109.6599-0.29-219.33-0.79-328.99-1.21c-83.6-0.2001-167.2-0.6101-250.8-1.01
		c8.54-35.6101,2.5-74.52-17.04-105.5601c-18.88-30.63-50.07-53.41-85.08-61.83c-38.79-9.63-81.6-1.5801-114,21.9299
		c-25.37,18.1-44.41,44.92-52.89,74.9301c-6.45,22.54-7.06,46.6899-1.69,69.52c-56.17-0.2201-112.34-0.1801-168.5-0.6901
		c-61.31-0.13-122.62-0.45-183.93-0.6c0.62-1.9301,2.11-3.36,3.18-5.02c2.96-4.47,4.44-9.86,4.44-15.2
		c-0.02-12.3201,0.02-24.63-0.03-36.9501c-0.03-14.84-13.76-28.01-28.66-26.95c-9.91-0.1-19.82,0.22-29.72-0.17
		c0.18-33.99,0.45-67.97,0.62-101.96C77.97,1019.84,77.82,1013.67,78.22,1007.52z"/>
	<path fill="#E6E6E6" stroke="#E6E6E6" stroke-width="0.0938" d="M154.31,656.47c45.22-0.16,90.45-0.04,135.67-0.06
		c12.01-0.12,22.64,10.67,22.63,22.63c0.02,57.34,0.02,114.69,0,172.04c0.34,12.17-10.39,23.24-22.57,23.26
		c-44.68,0.02-89.37,0.02-134.05,0c-12.29,0.09-23.06-11.07-22.77-23.31c-0.01-57.01-0.02-114.02,0.01-171.03
		C132.8,668.24,142.54,657.25,154.31,656.47z"/>
	<path fill="#E6E6E6" stroke="#E6E6E6" stroke-width="0.0938" d="M389.32,656.51c45.24-0.27,90.5-0.02,135.74-0.12
		c12.16-0.33,23.13,10.47,23.12,22.62c0,57.66,0.02,115.32-0.02,172.98c-0.1299,11.73-10.5,22.16-22.24,22.33
		c-41.97,0.07-83.95,0-125.93,0.03c-5.38-0.11-10.98,0.58-16.11-1.46c-8.92-3.24-15.24-12.35-15.05-21.86
		c0-54.01-0.01-108.03,0-162.04c0.12-4.58-0.35-9.21,0.37-13.75C370.94,665.5,379.47,657.52,389.32,656.51z"/>
	<path fill="#E6E6E6" stroke="#E6E6E6" stroke-width="0.0938" d="M625.37,656.47c45.2-0.17,90.41-0.03,135.62-0.08
		c12.03-0.14,22.75,10.61,22.76,22.61c0.04,57.33,0.01,114.67,0.01,172c0.37,12.26-10.47,23.44-22.75,23.35
		c-44.34,0.01-88.68,0-133.01-0.0099c-9.09,0.28-17.97-5.41-21.59-13.73c-1.55-3.31-2.14-6.98-2.06-10.6
		c0.04-57.01-0.02-114.01,0.03-171.02C604.45,667.63,614.01,657.27,625.37,656.47z"/>
	<path fill="#E6E6E6" stroke="#E6E6E6" stroke-width="0.0938" d="M860.36,656.52c45.18-0.3,90.38-0.03,135.57-0.13
		c9.78-0.34,19.15,6.5,22.16,15.76c1.41,3.79,1.24,7.9,1.21,11.89c0,55.66-0.01,111.32,0,166.98c0.21,9.25-5.82,18.19-14.4,21.58
		c-3.44,1.45-7.2,1.89-10.91,1.76c-43.64-0.03-87.27,0-130.91-0.01c-9.08,0.11-17.79-5.74-21.27-14.09
		c-2.48-5.4-1.78-11.49-1.89-17.25c0.02-54.69-0.05-109.37,0.03-164.06C840.03,667.79,849.26,657.63,860.36,656.52z"/>
	<path fill="#E6E6E6" stroke="#E6E6E6" stroke-width="0.0938" d="M1096.36,656.48c41.87-0.2,83.76-0.03,125.63-0.08
		c4.2,0.0699,8.41-0.19,12.61,0.14c9,0.98,16.8201,7.85,19.35,16.48c1.12,3.53,0.9,7.28,0.9301,10.94
		c-0.02,55.71,0.05,111.41-0.03,167.12c0.4,12.33-10.58,23.44-22.9,23.26c-44.33,0.0099-88.6599,0.03-132.98,0
		c-12.1899,0.47-23.2999-10.19-23.4399-22.36c-0.05-57.64-0.01-115.29-0.02-172.93C1075.53,667.69,1085.04,657.39,1096.36,656.48z"
		/>
	<path fill="#E6E6E6" stroke="#E6E6E6" stroke-width="0.0938" d="M1316.22,658.17c3.99-1.86,8.4601-1.88,12.78-1.78
		c48,0.01,96,0.01,144,0c12.47-0.75,24.62,4.65,34.05,12.51c4.9099,3.93,8.0699,9.42,11.5499,14.55
		c33.0801,49.26,66,98.62,99.15,147.82c8.47,12.1,17.5601,23.78,27.04,35.11c-0.12,2.76-1.55,5.28-2.3,7.92
		c-23.41,2.31-46.97,0.82-70.45,0.84c-82.3301-1.27-164.6801-0.62-247.03-0.81c-11.95,0.25-22.89-10.32-22.92-22.29
		c-0.0299-57.7-0.02-115.4-0.01-173.09C1302.09,670.02,1307.99,661.53,1316.22,658.17z"/>
	<path fill="#ED1B24" stroke="#ED1B24" stroke-width="0.0938" d="M63.52,1011.58c3.4-0.05,6.8-0.06,10.2-0.07
		c-0.03,25-0.14,50-0.27,75c-3.2,1.3-6.75,1-9.97-0.01C63.6,1061.52,63.51,1036.55,63.52,1011.58z"/>
	<path fill="#ED1B24" stroke="#ED1B24" stroke-width="0.0938" d="M1841.48,1011.89c3.55,0.75,5.89,3.77,8.34,6.22
		c5.9701,6.3201,9.51,14.5,11.39,22.9c1.5601,11.15-0.6,22.87-6.89,32.3c-2.85,4.1399-6.0499,8.4399-10.58,10.7999
		c-0.53-5.7-0.05-11.46-0.98-17.12c-0.24-9.01-0.27-18.02-0.5-27.02C1841.45,1030.63,1841.6,1021.24,1841.48,1011.89z"/>
	<path fill="#323232" stroke="#323232" stroke-width="0.0938" d="M608.45,1103.64c21.14-1.99,43.1,4.8099,59.08,18.87
		c10.54,8.98,18.48,20.89,23.08,33.9399c7.07,20.54,5.39,44.04-5.05,63.16c-8.05,14.97-20.94,27.46-36.5,34.4301
		c-16.35,7.7899-35.45,9.3099-52.95,4.84c-16.1-4.28-30.95-13.53-41.38-26.59c-11.42-13.74-17.66-31.51-17.79-49.3401
		c-0.23-19.09,6.8-38.1899,19.4-52.5399C569.41,1115.23,588.54,1105.55,608.45,1103.64z"/>
	<path fill="#323232" stroke="#323232" stroke-width="0.0938" d="M1617.3,1104.45c18.9199-3.13,39.1,0.4801,55.3099,10.9
		c13.86,8.67,24.9501,21.76,31.11,36.92c7.8,18.83,7.88,40.75,0.2001,59.63c-5.62,13.83-15.0801,26.16-27.3501,34.72
		c-17.2,12.6-39.7599,17.37-60.6399,13.34c-18.3301-3.2799-35.1001-13.62-46.79-28.0399c-10.8101-13.51-17.24-30.5901-17.42-47.9401
		c-0.4-15.9199,4.1801-31.91,12.99-45.1899C1576.45,1120.6899,1596.05,1108.04,1617.3,1104.45z"/>
</g>
</svg>
